<svg width="300" height="300" viewBox="0 0 300 300" fill="none" xmlns="http://www.w3.org/2000/svg">
<g clip-path="url(#clip0_561_141)">
<mask id="mask0_561_141" style="mask-type:alpha" maskUnits="userSpaceOnUse" x="0" y="0" width="300" height="300">
<rect width="300" height="300" rx="60" fill="black"/>
</mask>
<g mask="url(#mask0_561_141)">
<path d="M300 233.504C254.746 253.75 225.415 237.827 221.715 211.631C221.715 198.644 236.585 207.4 251.268 185.821C262.797 168.877 264.331 149.007 259.08 136.015C254.896 125.731 248.037 114.564 232.068 108.308C223.054 104.766 209.568 104.693 200.474 108.167C184.817 114.213 172.619 127.846 167.062 145.347C161.542 162.746 161.092 177.892 168.817 195.39C190.527 244.712 238.972 267.666 300 243.56V300H0V243.704C60.8548 267.573 109.149 244.613 130.814 195.39C138.54 177.892 138.091 162.746 132.571 145.347C127.014 127.846 114.815 114.213 99.1582 108.167C90.0638 104.693 76.5773 104.766 67.5635 108.308C51.5948 114.564 44.7372 125.731 40.5527 136.015C35.3015 149.007 36.8353 168.877 48.3643 185.821C63.0466 207.4 77.918 198.644 77.918 211.631C74.2281 237.756 45.0453 253.662 0 233.666V0H300V233.504Z" fill="url(#paint0_linear_561_141)"/>
</g>
</g>
<defs>
<linearGradient id="paint0_linear_561_141" x1="150" y1="-1.48515e-08" x2="150.498" y2="300" gradientUnits="userSpaceOnUse">
<stop stop-color="#1CB0C7"/>
<stop offset="0.490385" stop-color="#1C8595"/>
</linearGradient>
<clipPath id="clip0_561_141">
<rect width="300" height="300" fill="white"/>
</clipPath>
</defs>
</svg>
